<?xml version="1.0" encoding="UTF-8"?>
<svg width="800" height="600" viewBox="0 0 800 600" fill="none" xmlns="http://www.w3.org/2000/svg">
  <!-- Background -->
  <rect width="800" height="600" rx="12" fill="#1E293B"/>
  
  <!-- Sidebar -->
  <rect x="0" y="0" width="200" height="600" fill="#0F172A"/>
  
  <!-- Sidebar Menu Items -->
  <rect x="20" y="100" width="160" height="40" rx="8" fill="#3B82F6" fill-opacity="0.1"/>
  <rect x="35" y="115" width="130" height="10" rx="2" fill="#60A5FA"/>
  
  <rect x="20" y="160" width="160" height="40" rx="8" fill="#3B82F6" fill-opacity="0.05"/>
  <rect x="35" y="175" width="130" height="10" rx="2" fill="#475569"/>
  
  <rect x="20" y="220" width="160" height="40" rx="8" fill="#3B82F6" fill-opacity="0.05"/>
  <rect x="35" y="235" width="130" height="10" rx="2" fill="#475569"/>
  
  <!-- Main Content Area -->
  <!-- Header -->
  <rect x="220" y="20" width="560" height="60" rx="8" fill="#0F172A"/>
  <rect x="240" y="40" width="200" height="20" rx="4" fill="#475569"/>
  
  <!-- Stats Cards -->
  <rect x="220" y="100" width="270" height="120" rx="8" fill="#0F172A"/>
  <rect x="240" y="120" width="100" height="15" rx="2" fill="#475569"/>
  <rect x="240" y="145" width="150" height="30" rx="4" fill="#3B82F6"/>
  
  <rect x="510" y="100" width="270" height="120" rx="8" fill="#0F172A"/>
  <rect x="530" y="120" width="100" height="15" rx="2" fill="#475569"/>
  <rect x="530" y="145" width="150" height="30" rx="4" fill="#6366F1"/>
  
  <!-- Chart Area -->
  <rect x="220" y="240" width="560" height="300" rx="8" fill="#0F172A"/>
  <rect x="240" y="260" width="150" height="20" rx="4" fill="#475569"/>
  
  <!-- Chart Lines -->
  <path d="M240 480 Q340 400 440 450 T640 380" stroke="#3B82F6" stroke-width="3" fill="none"/>
  <path d="M240 520 Q340 450 440 500 T640 420" stroke="#6366F1" stroke-width="3" fill="none"/>
  
  <!-- Data Points -->
  <circle cx="340" cy="400" r="4" fill="#3B82F6"/>
  <circle cx="440" cy="450" r="4" fill="#3B82F6"/>
  <circle cx="540" cy="420" r="4" fill="#3B82F6"/>
  <circle cx="640" cy="380" r="4" fill="#3B82F6"/>
  
  <circle cx="340" cy="450" r="4" fill="#6366F1"/>
  <circle cx="440" cy="500" r="4" fill="#6366F1"/>
  <circle cx="540" cy="460" r="4" fill="#6366F1"/>
  <circle cx="640" cy="420" r="4" fill="#6366F1"/>
  
  <!-- Gradient Overlays -->
  <defs>
    <linearGradient id="paint0_linear" x1="400" y1="0" x2="400" y2="600" gradientUnits="userSpaceOnUse">
      <stop offset="0" stop-color="#3B82F6" stop-opacity="0.1"/>
      <stop offset="1" stop-color="#3B82F6" stop-opacity="0"/>
    </linearGradient>
    <linearGradient id="paint1_linear" x1="0" y1="300" x2="800" y2="300" gradientUnits="userSpaceOnUse">
      <stop offset="0" stop-color="#6366F1" stop-opacity="0.1"/>
      <stop offset="1" stop-color="#6366F1" stop-opacity="0"/>
    </linearGradient>
  </defs>
  <rect width="800" height="600" fill="url(#paint0_linear)"/>
  <rect width="800" height="600" fill="url(#paint1_linear)"/>
</svg> 